<?xml version="1.0" encoding="UTF-8" standalone="no"?>
<!-- Created with Inkscape (http://www.inkscape.org/) -->

<svg
   width="210mm"
   height="297mm"
   viewBox="0 0 210 297"
   version="1.1"
   id="svg1"
   inkscape:version="1.3.2 (091e20e, 2023-11-25)"
   sodipodi:docname="BMB.svg"
   xmlns:inkscape="http://www.inkscape.org/namespaces/inkscape"
   xmlns:sodipodi="http://sodipodi.sourceforge.net/DTD/sodipodi-0.dtd"
   xmlns="http://www.w3.org/2000/svg"
   xmlns:svg="http://www.w3.org/2000/svg">
  <sodipodi:namedview
     id="namedview1"
     pagecolor="#ffffff"
     bordercolor="#000000"
     borderopacity="0.25"
     inkscape:showpageshadow="2"
     inkscape:pageopacity="0.0"
     inkscape:pagecheckerboard="0"
     inkscape:deskcolor="#d1d1d1"
     inkscape:document-units="mm"
     inkscape:zoom="0.58707211"
     inkscape:cx="327.04671"
     inkscape:cy="683.05067"
     inkscape:window-width="1440"
     inkscape:window-height="779"
     inkscape:window-x="0"
     inkscape:window-y="25"
     inkscape:window-maximized="0"
     inkscape:current-layer="layer1" />
  <defs
     id="defs1" />
  <g
     inkscape:label="Calque 1"
     inkscape:groupmode="layer"
     id="layer1">
    <rect
       style="display:inline;fill:none;stroke:#000000;stroke-width:0.264583"
       id="rect1"
       width="50"
       height="150"
       x="58.34063"
       y="115.22595" />
    <path
       style="display:inline;fill:#000000;stroke-width:0.381045"
       d="m 100.43918,139.09311 c -1.651997,-0.14615 -4.089767,-0.35522 -5.417267,-0.46459 -2.632707,-0.21691 -3.385747,-0.37353 -4.415027,-0.91824 -0.87981,-0.46561 -1.760727,-1.35217 -2.263877,-2.27838 -0.36098,-0.6645 -0.43291,-0.902 -0.48149,-1.58978 -0.0316,-0.44778 -0.0145,-0.80837 0.0385,-0.80813 0.0938,4.3e-4 3.147167,0.25692 8.462834,0.71088 1.475,0.12596 3.852437,0.32564 5.283187,0.44373 l 2.60136,0.21471 v 2.48931 2.48932 l -0.40227,-0.0115 c -0.22125,-0.006 -1.75391,-0.13112 -3.40591,-0.27728 z m 3.27182,-0.93849 c 0,-1.172 -0.2756,-1.60639 -0.84762,-1.33598 -0.14064,0.0665 -0.23448,0.0683 -0.27856,0.005 -0.0366,-0.0523 -0.20845,-0.095 -0.38197,-0.095 h -0.31548 v 1.03151 1.03152 l 0.32242,0.0418 c 0.17734,0.023 0.34629,0.0207 0.37546,-0.005 0.0292,-0.0258 0.053,-0.35951 0.053,-0.74168 0,-0.55448 0.0325,-0.69485 0.1609,-0.69485 0.12951,0 0.16092,0.14669 0.16092,0.75172 0,0.74733 0.002,0.75196 0.29499,0.7912 0.16226,0.0217 0.33121,0.0459 0.37546,0.0537 0.0443,0.008 0.0804,-0.36755 0.0804,-0.83412 z m -2.14545,-0.43084 v -1.08965 h -0.32182 -0.32182 v 1.03568 c 0,1.11975 -0.043,1.0335 0.56318,1.13072 0.0443,0.007 0.0804,-0.47745 0.0804,-1.07675 z m -0.96546,-0.46363 c 0,-1.24257 -0.0251,-1.46703 -0.16968,-1.51603 -0.464057,-0.15729 -0.473947,-0.12798 -0.473947,1.40455 0,1.59643 -0.0498,1.45879 0.563177,1.5571 0.0443,0.007 0.0804,-0.64343 0.0804,-1.44562 z m -1.287267,0.64426 c 0,-0.54507 0.0274,-0.63108 0.21454,-0.67432 0.16809,-0.0388 0.21455,-0.12924 0.21455,-0.41751 0,-0.3797 -0.15569,-0.4768 -0.40764,-0.25425 -0.10012,0.0884 -0.12872,0.0884 -0.12872,0 0,-0.0632 -0.14304,-0.11371 -0.32182,-0.11371 h -0.32182 v 1.04228 1.04227 h 0.37545 0.37546 z m -1.24241,0.47249 c 0.11488,-0.0389 0.16968,-0.17772 0.16968,-0.42971 0,-0.33863 -0.0187,-0.36336 -0.20749,-0.27412 -0.11412,0.0539 -0.31928,0.0964 -0.45591,0.0944 -0.2186,-0.003 -0.18566,-0.0525 0.27443,-0.41066 0.46382,-0.36108 0.50914,-0.42964 0.40144,-0.60739 -0.24981,-0.41229 -0.84754,-0.60531 -1.34857,-0.43549 -0.27082,0.0918 -0.48753,0.55212 -0.48753,1.03556 0,0.3747 0.0545,0.48874 0.36472,0.76273 0.36353,0.3211 0.83633,0.41815 1.28923,0.26464 z m -1.01032,-1.21003 c 0,-0.17896 0.28575,-0.37411 0.43138,-0.29461 0.0815,0.0445 0.0608,0.1217 -0.0656,0.24503 -0.2173,0.2121 -0.36582,0.23222 -0.36582,0.0496 z m -1.12148,0.84547 c 0.21065,-0.18607 0.2633,-0.32911 0.2633,-0.71535 0,-0.77945 -0.37143,-1.23138 -1.01204,-1.23138 -0.24959,0 -0.27523,-0.0353 -0.27523,-0.379 0,-0.37163 -0.008,-0.37901 -0.384207,-0.37901 h -0.3842 l 0.0356,1.1924 0.0356,1.19241 0.35033,0.27625 c 0.453947,0.35796 0.995557,0.37522 1.370907,0.0437 z m -0.97973,-0.65504 c -0.10792,-0.24839 0.003,-0.48629 0.22541,-0.48629 0.16502,0 0.21307,0.0638 0.21307,0.28296 0,0.31 -0.32639,0.46136 -0.43848,0.20333 z m 6.606667,-1.24431 c 0,-0.30531 -0.0255,-0.33163 -0.32182,-0.33163 -0.29628,0 -0.32182,0.0263 -0.32182,0.33163 0,0.30531 0.0256,0.33163 0.32182,0.33163 0.29627,0 0.32182,-0.0263 0.32182,-0.33163 z m -0.16091,-2.46625 c -0.708,-0.0714 -2.590637,-0.2392 -4.183637,-0.37279 -7.129047,-0.59785 -9.295894,-0.79218 -9.348194,-0.83837 -0.0956,-0.0844 0.38736,-1.50025 0.72467,-2.12454 0.45549,-0.84299 1.324117,-1.63809 2.156907,-1.9743 1.0948,-0.44199 1.31234,-0.43684 8.740167,0.20682 l 0.664467,0.0576 0.0328,-4.34538 c 0.0362,-4.79103 0.0178,-4.65667 0.73332,-5.37644 0.55177,-0.55507 1.02378,-0.72185 2.04297,-0.72185 0.74842,0 0.95196,0.0371 1.40933,0.25699 0.55521,0.26691 1.02855,0.77698 1.24745,1.34424 0.0891,0.23079 0.12362,1.99001 0.12193,6.20627 -0.002,5.4899 -0.0154,5.90957 -0.19796,6.26319 -0.44002,0.8526 -1.31471,1.41639 -2.33271,1.50358 -0.28834,0.0247 -1.10352,-0.0135 -1.81152,-0.085 z m -3.271817,-6.25232 c -0.7375,-0.0667 -2.93391,-0.25385 -4.880907,-0.41591 -1.947,-0.16207 -3.64861,-0.3165 -3.78136,-0.34319 l -0.241367,-0.0485 v -2.22487 c 0,-1.22368 0.0362,-2.22447 0.0804,-2.22398 0.0443,5e-4 1.504497,0.12524 3.244997,0.27722 1.7405,0.15199 4.045517,0.35075 5.122267,0.44168 l 1.95773,0.16535 v 2.25786 c 0,1.24183 -0.0362,2.25286 -0.0804,2.24674 -0.0443,-0.006 -0.68386,-0.0657 -1.42136,-0.13237 z"
       id="path1"
       inkscape:label="TUB " />
    <path
       style="display:inline;fill:#000000;stroke-width:0.41287"
       d="m 100.07949,264.61477 c -0.0384,-0.0418 -0.0698,-0.27273 -0.0698,-0.51315 v -0.43712 h 0.6802 0.68021 v 0.51314 0.51315 h -0.61044 c -0.33575,0 -0.64183,-0.0342 -0.68021,-0.076 z m -6.453204,-1.91954 v -1.31137 h -0.26497 c -0.32252,0 -1.00564,0.29928 -1.11632,0.48906 -0.16785,0.28781 -0.0836,0.74891 0.17785,0.97298 0.19265,0.16513 0.26162,0.33266 0.26162,0.63546 0,0.45121 -0.0793,0.49082 -0.50227,0.25099 -0.51616,-0.29264 -0.7801,-0.70546 -0.83274,-1.30243 -0.0745,-0.84468 0.17162,-1.30876 0.90104,-1.69909 0.52624,-0.28161 0.70552,-0.31624 1.63741,-0.31624 0.931897,0 1.111167,0.0346 1.637407,0.31624 0.42706,0.22853 0.63747,0.42305 0.75869,0.70142 0.34711,0.79708 0.14319,1.68009 -0.48376,2.09477 -0.37628,0.24888 -1.248327,0.47958 -1.812847,0.47958 h -0.36111 z m 1.752987,0.10573 c 0.29891,-0.21342 0.3819,-0.42217 0.3028,-0.76167 -0.0725,-0.31137 -0.33537,-0.50025 -0.83947,-0.6033 l -0.379137,-0.0775 v 0.88219 0.88218 l 0.334627,-0.0729 c 0.18404,-0.0401 0.44557,-0.15214 0.58118,-0.24896 z m 4.630457,-0.78272 v -0.50595 l 1.88099,-0.0357 c 1.76468,-0.0335 1.89496,-0.0509 2.10667,-0.28191 0.28624,-0.31227 0.20514,-0.75208 -0.19092,-1.03522 -0.23398,-0.16727 -0.57611,-0.20739 -2.03895,-0.23912 l -1.75779,-0.0381 v -0.50353 -0.50353 h 2.51152 2.51152 v 0.44318 c 0,0.43991 -0.004,0.44377 -0.48635,0.52265 l -0.48635,0.0795 0.42043,0.2732 c 0.4799,0.31184 0.70767,0.7928 0.60849,1.28487 -0.0814,0.4039 -0.29738,0.6344 -0.81538,0.87024 -0.29965,0.13643 -0.81608,0.1754 -2.32455,0.1754 h -1.93933 z m -8.560594,-2.64909 0.0319,-0.53229 1.02398,-0.47899 c 0.56319,-0.26345 1.05343,-0.51109 1.08943,-0.55031 0.036,-0.0392 -0.02,-0.17426 -0.12455,-0.30008 -0.1629,-0.19615 -0.32194,-0.22876 -1.11558,-0.22876 h -0.9256 v -0.5147 -0.51471 l 3.427167,0.0301 3.42718,0.0301 0.0321,0.48215 0.0321,0.48215 -2.01444,0.031 -2.014437,0.031 1.040547,0.7412 c 1.02556,0.73053 1.04102,0.7482 1.07273,1.22585 0.0177,0.26655 -0.01,0.48463 -0.0605,0.48463 -0.051,0 -0.49751,-0.30775 -0.99224,-0.68388 l -0.899497,-0.68389 -1.46578,0.7409 c -0.80618,0.4075 -1.49514,0.74091 -1.53104,0.74091 -0.0359,0 -0.0509,-0.23954 -0.0334,-0.5323 z m 9.225524,-1.69325 c -0.54338,-0.35309 -0.812237,-0.93206 -0.743127,-1.60024 0.117307,-1.13405 0.952697,-1.67253 2.594757,-1.67253 1.48928,0 2.26998,0.43613 2.5085,1.40134 0.29902,1.21009 -0.67426,2.15844 -2.21517,2.15844 h -0.50081 l -0.0296,-1.28286 -0.0296,-1.28286 -0.41859,0.0381 c -0.98077,0.0892 -1.43424,0.85517 -0.81869,1.38278 0.22901,0.19629 0.28447,0.32756 0.25853,0.61185 -0.0479,0.52508 -0.12721,0.55726 -0.60622,0.24599 z m 3.37503,-0.90774 c 0.56742,-0.40513 0.11572,-1.31395 -0.65306,-1.31395 h -0.35215 v 0.81314 0.81314 l 0.37733,-0.0667 c 0.20753,-0.0367 0.49008,-0.14722 0.62788,-0.24561 z M 91.387586,255.5019 c -0.19303,-0.54812 0.0521,-1.00427 0.6316,-1.1755 l 0.29902,-0.0883 -0.32456,-0.18431 c -0.91338,-0.51871 -0.89689,-1.87257 0.0275,-2.25554 0.38311,-0.15872 1.26138,-0.12971 1.58444,0.0523 0.53701,0.3026 0.6841,0.59185 0.74682,1.46863 0.0662,0.92523 0.12306,0.97809 0.829407,0.77083 0.65549,-0.19234 0.72693,-0.8964 0.11456,-1.12902 -0.31495,-0.11964 -0.36652,-0.28579 -0.24371,-0.78518 0.0742,-0.30169 0.24674,-0.32209 0.6764,-0.08 0.70422,0.39682 0.97873,1.71862 0.49584,2.38757 -0.37351,0.51742 -0.77619,0.62873 -2.274487,0.62873 -1.4109,0 -1.89381,0.10106 -1.89381,0.39629 0,0.23983 -0.58426,0.23415 -0.66901,-0.007 z m 2.34335,-1.81518 c 0,-0.64782 -0.26257,-0.96928 -0.79173,-0.96928 -1.32827,0 -0.79321,1.41644 0.55627,1.47262 0.21063,0.009 0.23546,-0.0443 0.23546,-0.50334 z m 7.375394,-0.21002 c -0.82297,-0.29261 -1.201247,-0.73325 -1.201247,-1.39929 0,-0.40901 0.172287,-0.70709 0.556077,-0.96209 0.33332,-0.22147 0.33209,-0.22154 -4.355537,-0.22196 l -4.688947,-4.2e-4 0.0322,-0.48464 0.0322,-0.48464 2.48536,2.7e-4 c 1.366937,1.5e-4 2.485347,-0.0384 2.485347,-0.0855 0,-0.0472 -0.0589,-0.084 -0.1308,-0.0819 -0.072,0.002 -1.2044,-0.2649 -2.516557,-0.59346 l -2.38576,-0.59737 0.0312,-0.39855 0.0312,-0.39855 1.20343,-0.31188 c 0.66189,-0.17153 1.81563,-0.45636 2.563847,-0.63294 l 1.36041,-0.32108 -2.590007,-0.0305 -2.59,-0.0305 v -0.45414 -0.45413 h 3.24903 3.249037 l -0.0312,0.70454 -0.0312,0.70455 -2.09293,0.54698 c -1.151107,0.30085 -2.196107,0.54826 -2.322207,0.54981 -0.39554,0.005 -0.36263,0.20232 0.0471,0.2824 0.21533,0.0421 0.9566,0.22378 1.647267,0.40377 0.69067,0.17999 1.59238,0.41068 2.0038,0.51264 0.56886,0.14099 0.76078,0.23847 0.80122,0.40696 0.0513,0.21385 0.17557,0.22156 3.568627,0.22156 h 3.51546 v 0.45613 c 0,0.37535 -0.0371,0.45865 -0.2093,0.47038 -0.33519,0.0228 -0.39709,0.0384 -0.47007,0.11787 -0.0379,0.0413 0.032,0.11004 0.15547,0.15273 0.27012,0.0934 0.62761,0.69707 0.62815,1.06069 7.9e-4,0.49279 -0.30851,0.94526 -0.81804,1.1969 -0.61001,0.30126 -2.53983,0.39458 -3.21265,0.15535 z m 2.48854,-0.99361 c 0.5155,-0.156 0.78133,-0.57659 0.61534,-0.97358 -0.18039,-0.43141 -0.71337,-0.61657 -1.77477,-0.61657 -0.79475,0 -0.98132,0.0378 -1.28529,0.26048 -0.60347,0.4421 -0.47392,1.09398 0.2638,1.3274 0.45213,0.14305 1.71135,0.14436 2.18092,0.002 z m -0.91665,-3.59346 c -0.11511,-0.0283 -0.45203,-0.10491 -0.74871,-0.17017 -1.78759,-0.39321 -2.627357,-2.57281 -1.53586,-3.98631 1.18891,-1.53967 4.90347,-1.45068 5.86987,0.14062 0.32389,0.53332 0.43951,1.63558 0.24049,2.29269 -0.17288,0.57082 -0.921,1.28036 -1.57214,1.49107 -0.56583,0.18311 -1.89613,0.32011 -2.25365,0.2321 z m 1.75841,-1.19726 c 0.50333,-0.15231 0.99215,-0.63035 1.10885,-1.08441 0.11441,-0.4452 -0.0989,-1.16028 -0.42951,-1.44007 -0.62662,-0.53022 -2.36592,-0.65849 -3.23224,-0.23835 -1.3497,0.65455 -1.21129,2.30096 0.23145,2.7531 0.48253,0.15122 1.83511,0.15689 2.32145,0.01 z"
       id="path2"
       inkscape:label="open make " />
    <rect
       style="display:inline;fill:none;stroke:#000000;stroke-width:0.264897"
       id="rect2"
       width="0.22215526"
       height="95.130806"
       x="89.951035"
       y="143.45465"
       inkscape:label="souligne" />
    <g
       id="g4"
       transform="matrix(-0.00160192,0.10411563,-0.13406697,-0.00159431,195.20648,127.66906)"
       style="display:inline">
      <g
         id="g17"
         transform="translate(-114.54065,587.3449)">
        <line
           fill="none"
           stroke="#000000"
           stroke-width="1.9843"
           stroke-miterlimit="10"
           x1="36.473999"
           y1="304.66901"
           x2="36.473999"
           y2="171.92101"
           id="line1" />
        <line
           fill="none"
           stroke="#000000"
           stroke-width="1.9843"
           stroke-miterlimit="10"
           x1="36.473999"
           y1="410.022"
           x2="36.473999"
           y2="314.784"
           id="line2" />
        <path
           stroke="#000000"
           stroke-width="1.9843"
           stroke-miterlimit="10"
           d="m 38.768,304.669 c 0,0 2.672,0 5.917,0 3.244,0 12.025,1.146 12.025,1.146 l -8.398,8.971 H 38.768 38.764 29.22 l -8.398,-8.971 c 0,0 8.781,-1.146 12.025,-1.146 3.245,0 5.917,0 5.917,0 z"
           id="path2-8" />
        <path
           fill="none"
           stroke="#000000"
           stroke-width="1.9843"
           stroke-miterlimit="10"
           d="m 47.153,314.772 c 0,0 1.35,22.154 3.448,45.06 2.1,22.906 6.489,50.202 6.489,50.202 H 38.767 38.765 20.44 c 0,0 4.39,-27.296 6.488,-50.202 2.1,-22.905 3.448,-45.06 3.448,-45.06"
           id="path3" />
        <line
           fill="none"
           stroke="#000000"
           stroke-width="1.9843"
           stroke-miterlimit="10"
           x1="41.057999"
           y1="304.66901"
           x2="41.057999"
           y2="171.92101"
           id="line3" />
        <line
           fill="none"
           stroke="#000000"
           stroke-width="1.9843"
           stroke-miterlimit="10"
           x1="41.057999"
           y1="410.022"
           x2="41.057999"
           y2="314.784"
           id="line4" />
        <line
           fill="none"
           stroke="#000000"
           stroke-width="1.9843"
           stroke-miterlimit="10"
           x1="38.841"
           y1="158.061"
           x2="38.841"
           y2="139.701"
           id="line5" />
        <polyline
           fill="none"
           stroke="#000000"
           stroke-width="1.9843"
           stroke-miterlimit="10"
           points="20.44,410.034 50.026,354.393    30.377,314.772  "
           id="polyline5" />
        <polyline
           fill="none"
           stroke="#000000"
           stroke-width="1.9843"
           stroke-miterlimit="10"
           points="57.091,410.034 27.505,354.393    47.153,314.772  "
           id="polyline6" />
        <line
           fill="none"
           stroke="#000000"
           stroke-width="1.9843"
           stroke-miterlimit="10"
           x1="25.593"
           y1="375.58099"
           x2="51.905998"
           y2="375.58099"
           id="line6" />
        <line
           fill="none"
           stroke="#000000"
           stroke-width="1.9843"
           stroke-miterlimit="10"
           x1="27.504999"
           y1="354.39301"
           x2="50.026001"
           y2="354.39301"
           id="line7" />
        <line
           fill="none"
           stroke="#000000"
           stroke-width="1.9843"
           stroke-miterlimit="10"
           x1="29.195999"
           y1="331.64801"
           x2="48.165001"
           y2="331.64801"
           id="line8" />
        <line
           fill="none"
           stroke="#000000"
           stroke-width="1.9843"
           stroke-miterlimit="10"
           x1="30.938"
           y1="292.92999"
           x2="46.591"
           y2="292.92999"
           id="line9" />
        <line
           fill="none"
           stroke="#000000"
           stroke-width="1.9843"
           stroke-miterlimit="10"
           x1="30.938"
           y1="271.17001"
           x2="46.591"
           y2="271.17001"
           id="line10" />
        <line
           fill="none"
           stroke="#000000"
           stroke-width="1.9843"
           stroke-miterlimit="10"
           x1="31.606001"
           y1="251.7"
           x2="45.923"
           y2="251.7"
           id="line11" />
        <line
           fill="none"
           stroke="#000000"
           stroke-width="1.9843"
           stroke-miterlimit="10"
           x1="31.989"
           y1="235.093"
           x2="45.445999"
           y2="235.093"
           id="line12" />
        <line
           fill="none"
           stroke="#000000"
           stroke-width="1.9843"
           stroke-miterlimit="10"
           x1="32.466"
           y1="218.104"
           x2="44.873001"
           y2="218.104"
           id="line13" />
        <line
           fill="none"
           stroke="#000000"
           stroke-width="1.9843"
           stroke-miterlimit="10"
           x1="32.848"
           y1="202.83299"
           x2="44.587002"
           y2="202.83299"
           id="line14" />
        <line
           fill="none"
           stroke="#000000"
           stroke-width="1.9843"
           stroke-miterlimit="10"
           x1="32.848"
           y1="189.28101"
           x2="44.587002"
           y2="189.28101"
           id="line15" />
        <line
           fill="none"
           stroke="#000000"
           stroke-width="1.9843"
           stroke-miterlimit="10"
           x1="33.679001"
           y1="171.239"
           x2="30.556999"
           y2="304.716"
           id="line16" />
        <path
           stroke="#000000"
           stroke-width="1.9843"
           stroke-miterlimit="10"
           d="m 43.712,165.278 -0.297,-7.218 h -9.299 l -0.298,7.218 h -4.551 c 0,0 1.933,4.867 4.224,5.869 0.062,0.027 0.125,0.051 0.188,0.075 v 0.017 h 0.042 c 2.252,0.895 4.995,0.715 4.995,0.715 h 0.099 c 0,0 2.744,0.18 4.996,-0.715 h 0.042 v -0.017 c 0.062,-0.024 0.126,-0.048 0.188,-0.075 2.291,-1.002 4.224,-5.869 4.224,-5.869 z"
           id="path16" />
        <line
           fill="none"
           stroke="#000000"
           stroke-width="1.9843"
           stroke-miterlimit="10"
           x1="46.974998"
           y1="304.716"
           x2="43.853001"
           y2="171.239"
           id="line17" />
      </g>
      <g
         id="g18"
         transform="matrix(1.2095119,-0.00127841,-0.00117715,1.0000072,99.442012,15.819306)">
        <path
           d="m 995.19282,961.65778 -0.0873,-7.6476 3.29343,-1.28247 -0.0975,-8.56988 -3.32171,-1.20803 -0.18618,-16.40133 -3.33437,0.0379 -4.94829,-17.943 -4.54064,18.0526 -3.33549,0.0389 0.18618,16.40134 -3.2934,1.28443 0.0975,8.56987 3.32168,1.20608 0.0873,7.64761 -59.46644,0.68686 -3.22543,-4.74204 -3.11691,4.81528 -11.47971,0.1325 -0.44086,-38.8227 -50.34531,0.58143 -6.18351,-152.31305 1.89243,-0.0213 -0.0746,-6.5259 -2.08022,0.0234 -0.25714,-6.30195 c 9.06599,-2.89814 15.51065,-10.49955 15.40988,-19.37392 -0.0947,-8.34126 -5.94609,-15.43676 -14.23114,-18.48964 l -0.25692,-23.2145 -5.95936,1.24647 -5.73429,-76.03773 -0.37156,-2.35128 -3.17632,79.66526 -4.72638,0.0569 1.47388,20.85171 c -8.21466,3.24344 -13.90224,10.47222 -13.80752,18.81346 0.10119,8.8734 6.71749,16.32398 15.84691,19.01294 l -0.11397,6.30623 -2.08133,0.0234 0.0746,6.52591 1.89131,-0.0213 -2.72193,152.41591 -38.77059,0.4477 -0.19831,-17.46174 -3.55792,0.0413 -0.16702,-14.70663 -1.7784,0.0201 -0.72243,-63.62075 -13.5968,0.15728 -5.80373,-16.68188 -5.42225,16.81153 -13.59569,0.15727 0.72243,63.62074 -1.77841,0.0201 0.16702,14.70663 -3.55793,0.0413 0.19831,17.46176 -71.39108,0.82445 -0.83203,-73.27438 -14.12753,-3.26271 -6.65656,0.46024 -0.0659,-5.81669 c 0.98824,-0.19727 1.72066,-0.97048 1.71026,-1.88691 -0.0104,-0.9174 -0.7602,-1.6735 -1.75268,-1.84789 l -0.0602,-5.34486 -0.93223,0.0108 0.0602,5.34486 c -0.98714,0.19725 -1.71956,0.97047 -1.70913,1.88786 0.0104,0.91644 0.76018,1.67253 1.75155,1.84694 l 0.0666,5.86921 -11.24993,0.77601 -6.14849,6.02078 0.50623,44.57715 -6.37549,-6.6847 -0.55442,-48.81684 -4.85495,-3.32504 -0.35683,-4.0532 -3.56436,0.85262 -0.51372,-4.18762 -1.3999,-0.11907 -0.36952,-5.27026 -1.73521,-2.27912 -6.21952,-0.3339 -2.34288,-1.0549 -0.98095,-4.18124 c 0,0 -3.11863,-1.04594 -5.45845,-1.83039 -2.33981,-0.78444 -3.23673,2.33654 -3.23673,2.33654 l -5.71402,30.496 0.50371,44.35435 -4.25481,8.56954 0.0422,3.78635 -5.09073,16.96436 -0.2579,-22.71808 -7.37569,-33.72593 -6.29825,33.88385 0.0514,25.00308 -1.60875,2.0638 0.66111,58.21557 -16.75009,0.1935 -0.43784,-38.5503 3.64065,-9.2951 -4.09557,0.0481 1.31011,-8.27866 -37.43929,0.43238 -0.0189,-1.62952 -5.69625,0.0663 c 0.0746,-0.5146 -0.0253,-1.04956 -0.16991,-1.47503 -0.2417,-0.70942 0.85954,-1.5881 1.03855,-1.18249 0.18124,0.40559 -0.33253,1.53044 0.2527,1.67743 0.58632,0.14501 0.44693,-1.99102 0.55222,-2.85819 0.10643,-0.86719 0.0983,-1.68245 -0.26078,-2.39053 -0.35909,-0.70807 0.78873,-2.606 0.78121,-3.2685 -0.008,-0.66155 -0.77282,-1.11002 -1.70202,-0.43863 -0.92807,0.67235 -1.26637,1.69595 -1.37735,2.35885 -0.0576,0.3451 -0.11686,0.83325 -0.38127,1.37242 l -4.33237,-0.42478 c -0.18882,-0.58161 -0.27119,-1.14109 -0.0333,-1.75973 0.51145,-1.32917 -0.20096,-2.33868 -0.96273,-2.28026 -0.76063,0.0604 -1.22146,0.72827 -1.44931,1.2388 -0.22783,0.51248 -0.63173,0.97639 -0.92806,0.67429 -0.29744,-0.30207 -0.1255,-0.8139 0.0419,-1.42686 0.16856,-0.61299 0.16393,-1.01964 -0.18652,-1.06716 -0.1937,-0.026 -0.54181,-0.0639 -0.81939,-0.0947 l -0.024,-2.04688 c 0.70553,-0.1862 1.22006,-0.75257 1.21241,-1.42677 -0.007,-0.65959 -0.51228,-1.20447 -1.20076,-1.38625 0.3233,-0.37347 1.04644,-1.27501 1.21904,-2.02425 0.22262,-0.97069 0.1006,-1.47816 0.1006,-1.47816 0,0 -0.69847,0.41478 -0.98728,0.7752 -0.23478,0.29362 -0.65652,1.05742 -0.80322,1.32961 -0.15398,-0.26871 -0.59183,-1.02257 -0.83323,-1.31071 -0.2969,-0.35269 -1.00462,-0.75219 -1.00462,-0.75219 0,0 -0.11048,0.51015 0.13414,1.47544 0.18957,0.74506 0.93298,1.62967 1.26469,1.99557 -0.68306,0.19762 -1.17645,0.75499 -1.16896,1.41363 0.008,0.67418 0.53492,1.22951 1.24449,1.39838 l 0.024,2.04689 c -0.27683,0.0373 -0.6251,0.0831 -0.81704,0.11354 -0.3493,0.0556 -0.34468,0.46226 -0.16224,1.07118 0.18131,0.60895 0.3637,1.1157 0.0755,1.42552 -0.29052,0.30887 -0.70482,-0.14462 -0.94424,-0.65267 -0.23938,-0.50416 -0.71527,-1.16224 -1.47707,-1.205 -0.76177,-0.0408 -1.45219,0.98488 -0.91069,2.30188 0.2529,0.61298 0.18214,1.17423 0.008,1.76004 l -4.3227,0.52474 c -0.27659,-0.53292 -0.34807,-1.01955 -0.41234,-1.36325 -0.1249,-0.66115 -0.48746,-1.67665 -1.43055,-2.32641 -0.94423,-0.65072 -1.69912,-0.18373 -1.69161,0.47781 0.008,0.66251 1.19924,2.53244 0.85524,3.24961 -0.344,0.71716 -0.33253,1.53142 -0.20645,2.39592 0.12608,0.8645 0.0346,3.00319 0.617,2.84468 0.58174,-0.15948 0.0437,-1.27317 0.21453,-1.68281 0.16974,-0.40965 1.29066,0.44335 1.06512,1.15819 -0.13487,0.42772 -0.22268,0.96485 -0.13636,1.47856 l -5.69626,0.0663 0.0189,1.62953 -37.4393,0.43239 1.49778,8.24623 -4.09447,0.048 3.84967,9.20859 0.43784,38.55031 -14.83643,0.17182 -0.73301,-64.54594 -0.85847,0.01 c 0.19986,-0.90912 1.01041,-1.98779 1.39095,-2.53997 0.7369,-1.06711 -0.0317,-2.76679 -0.50975,-3.73815 -0.47832,-0.97134 -0.38536,-1.05415 -0.11512,-1.87068 0.27244,-0.81656 -0.85444,-1.21123 -1.59227,-0.22583 -0.73671,0.98538 -0.70992,3.34455 -0.69975,4.24056 0.0102,0.89599 -0.73117,1.47277 -2.21938,2.14186 -0.83419,0.37451 -1.04502,1.30224 -1.0712,2.04785 l -3.05158,0.0348 -0.30494,-26.85467 -2.63601,-3.14341 -16.65956,0.19243 -0.29948,-26.36628 -1.31005,0.0151 0.29948,26.36629 -16.65955,0.19243 -2.56618,3.2035 0.30493,26.85467 -14.00927,0.16181 -2.31002,-5.54558 -2.18573,5.59751 -11.50654,0.13279 -2.31004,-5.54558 -2.18572,5.59751 -11.51101,0.13284 -2.31004,-5.54559 -2.18572,5.59751 -11.51102,0.13284 -2.31002,-5.54558 -2.18572,5.5975 -13.57334,0.15702 -0.14182,-12.45154 -2.30714,0.0258 -0.17562,-15.46157 -2.24342,0.0251 -0.0258,-2.27841 -1.30893,0.0151 -0.0357,-3.09173 -1.6834,0.0191 0.0357,3.09172 -1.30782,0.0151 0.0258,2.27842 -2.24454,0.0251 0.17563,15.46157 -2.18194,0.0245 c -0.17237,-15.17846 -12.31648,-27.7755 -28.54754,-31.09856 l -0.0236,-2.02158 -17.67339,0.20413 0.0236,2.02158 c -16.15022,3.69704 -28.00509,16.57127 -27.83273,31.74974 l -2.18194,0.0245 -0.17562,-15.46156 -2.24118,0.0251 -0.0258,-2.27842 -1.31006,0.0151 -0.0357,-3.09172 -1.68228,0.0191 0.0357,3.09172 -1.30893,0.0151 0.0258,2.27843 -2.24454,0.0251 0.17562,15.46158 -2.30602,0.0258 0.14182,12.45155 -13.57445,0.15704 -2.31115,-5.54557 -2.1846,5.5975 -11.51213,0.13285 -2.31115,-5.54556 -2.18461,5.5975 -11.51214,0.13285 -2.31114,-5.54556 -2.1846,5.59749 -11.51215,0.13285 -2.31114,-5.54557 -2.18461,5.59749 -14.00927,0.16181 -0.30494,-26.85465 -2.63713,-3.14342 -16.657329,0.19241 -0.299412,-26.36629 -1.308934,0.0151 0.299413,26.36629 -16.660676,0.19244 -2.565062,3.20349 0.304957,26.85465 -3.051574,0.0348 c -0.04087,-0.74483 -0.274943,-1.66743 -1.116312,-2.02258 -1.504124,-0.63453 -2.25726,-1.19405 -2.267434,-2.09005 -0.01018,-0.896 -0.03699,-3.25517 -0.796977,-4.22326 -0.758894,-0.96811 -1.876528,-0.54752 -1.586726,0.26253 0.288682,0.81009 0.383505,0.89072 -0.07152,1.87285 -0.457262,0.98216 -1.185665,2.69913 -0.425843,3.74895 0.392964,0.54228 1.227811,1.60292 1.44937,2.50718 l -0.859581,0.01 0.568745,50.0835 -7.398656,0.0856 -2.053058,-4.5746 -2.071274,0.0233 -0.161776,-14.24648 1.139029,-0.0131 -0.05114,-4.50627 -11.102958,-1.73697 -0.04741,-4.1755 -2.552876,-1.23636 -0.751389,-66.16768 1.277459,-3.86971 -0.04989,-4.39536 -3.029218,0.0346 -0.04688,-4.12392 c 0,0 -0.306847,-1.22825 -3.009272,-1.55607 l -0.01806,-1.58771 1.617424,-1.20182 c 0,0 1.048863,0.0209 1.938532,-0.29287 0.890785,-0.31387 1.508453,-0.55938 1.07567,-1.16249 -0.43503,-0.60406 -2.849311,-4.59947 -2.849311,-4.59947 0,0 0.771903,-0.34751 0.928791,-0.31429 0.155749,0.0313 -0.0058,-0.50685 -0.245141,-1.01198 -0.238257,-0.50417 -1.348108,-2.3517 -1.389173,-2.62074 -0.0422,-0.27 -0.754247,-1.44492 1.134026,-2.71799 1.889392,-1.27307 2.536185,-2.49774 2.955515,-3.17784 0.420435,-0.68107 2.417281,-2.63161 3.612283,-3.52401 1.193875,-0.89337 0.374022,-1.32272 -0.940689,-0.73347 -1.314711,0.58924 -5.475997,3.61267 -6.396712,4.63813 -0.920726,1.02448 -1.727542,1.74311 -1.727542,1.74311 0,0 0.37211,-1.49102 0.09438,-1.9276 -0.523608,-0.82391 -1.048625,-0.88594 -1.296498,-0.85875 -0.249532,-0.0204 -0.771886,0.0537 -1.276657,0.88847 -0.266629,0.44288 0.138124,1.92491 0.138124,1.92491 0,0 -0.189655,-0.16225 -0.486784,-0.43612 l -0.603737,-11.62112 -0.674027,0.008 0.500118,10.86437 c -0.162818,-0.16158 -0.329099,-0.33285 -0.50336,-0.51764 -0.943761,-1.00393 -5.172614,-3.93046 -6.500361,-4.48919 -1.327747,-0.55872 -2.137645,-0.11152 -0.923787,0.755 1.213838,0.86459 3.255572,2.76848 3.691363,3.43968 0.434664,0.67023 1.109099,1.87963 3.026904,3.10874 1.916688,1.22912 1.231503,2.42017 1.195451,2.69108 -0.03494,0.26992 -1.102561,2.14162 -1.329296,2.65212 -0.227863,0.50957 -0.377092,1.05227 -0.222095,1.01739 0.156103,-0.0359 0.935685,0.29277 0.935685,0.29277 0,0 -2.322919,4.0501 -2.744117,4.66405 -0.42009,0.61297 0.204096,0.84317 1.101787,1.13734 0.896563,0.29322 1.944675,0.24803 1.944675,0.24803 l 1.64429,1.16416 0.01806,1.5877 c -2.694272,0.39014 -2.973147,1.62516 -2.973147,1.62516 l 0.04688,4.12392 -3.029219,0.0346 0.04989,4.39536 1.365,3.83918 0.751389,66.16769 -2.524131,1.295 0.04741,4.17549 -11.060601,1.99295 0.05114,4.50625 1.139029,-0.0131 0.161777,14.24647 -2.071274,0.0233 -1.948636,4.62082 -9.7046697,0.1114 0.028132,2.47787 -20.4980503,0.23672 0.931363,-9.93225 c 0,0 4.075504,-2.99715 5.600485,-4.26699 1.5261192,-1.2679 5.3868118,-5.06723 8.2262413,-8.22913 2.83833378,-3.15994 2.10446094,-4.58272 1.0620999,-5.99999 -1.0423611,-1.41728 -3.0948392,-1.21551 -8.8388812,-0.43501 -5.742905,0.78244 -14.752634,3.12145 -14.752634,3.12145 -10.858768,2.5384 -17.087346,5.73847 -25.59538,7.26702 -8.505798,1.52852 -22.055377,2.39918 -31.505862,2.15319 -9.452768,-0.24986 -14.403547,-2.07053 -16.157545,-2.85395 -1.755111,-0.78341 -5.366083,-2.26248 -9.068683,-2.75485 -3.70487,-0.49431 -2.74078,2.89123 -1.58643,5.11285 1.15434,2.2216 11.342765,13.01008 11.342765,13.01008 l 0.05384,4.73585 -63.036695,0.72807 0.17661,15.55105 718.40206,-8.29717 1.23302,1.25216 c 0,0 1.38096,-0.28494 9.31573,0.57014 7.93477,0.85509 23.93404,-0.76659 23.93404,-0.76659 l 20.38285,-1.68939 11.36682,-0.13129 3.76919,-0.0435 2.55792,-2.45597 6.27951,5.51813 16.09935,-5.36722 8.83416,0.50403 5.38366,1.34881 234.79982,-2.71182 -0.0634,-5.60559 c 4.20959,1.42642 6.77668,3.32425 6.80066,5.43632 l 15.25673,-0.17633 c -0.0525,-4.63663 12.14674,-8.5342 27.24922,-8.70862 15.10247,-0.17468 27.38936,3.44034 27.44201,8.07696 l 25.08663,-0.28969 -0.1375,-12.26187 z m -971.409472,15.39899 -4.039686,0.0475 -0.161777,-14.24647 4.039687,-0.0475 z m 27.509955,-0.31776 -4.038569,0.0475 -0.161776,-14.24647 4.03857,-0.0475 z m 167.960237,5.42853 -1.746,0.0198 -0.45535,-40.10104 -9.82203,0.11267 0.45535,40.10103 -1.746,0.0198 -0.47268,-41.62064 13.31512,-0.15425 0.47268,41.62064 z m 15.9531,-0.18433 -1.74599,0.0198 -0.45535,-40.10104 -9.82317,0.11268 0.45535,40.10105 -1.746,0.0198 -0.47268,-41.62063 13.314,-0.15424 0.47268,41.62063 z m 15.95423,-0.18434 -1.74598,0.0198 -0.45535,-40.10105 -9.82204,0.11267 0.45535,40.10104 -1.746,0.0198 -0.47268,-41.62064 13.31512,-0.15424 0.47268,41.62063 z m 15.95201,-0.18431 -1.74488,0.0198 -0.45535,-40.10103 -9.82204,0.11266 0.45535,40.10104 -1.746,0.0198 -0.47268,-41.62064 13.31289,-0.15413 z m 15.95534,-0.18436 -1.746,0.0198 -0.45535,-40.10104 -9.82205,0.11266 0.45535,40.10105 -1.746,0.0198 -0.47267,-41.62062 13.31512,-0.15425 0.47268,41.62063 z m -87.60707,-47.53898 48.24793,-18.90377 0.0366,0.0696 0.0338,-0.0704 48.66455,17.78448 z m 566.11251,-86.13391 v 0 l 0.002,-2e-5 c 2.60334,-0.03 4.73347,1.78233 4.7592,4.0481 0.0256,2.26481 -2.0627,4.12591 -4.66603,4.15599 l -10e-4,1e-5 -10e-4,10e-6 c -2.60222,0.03 -4.73346,-1.78233 -4.75918,-4.04713 -0.0256,-2.26578 2.06269,-4.12688 4.66601,-4.15696 z m -225.41839,103.88792 0.43784,38.55031 -12.2264,0.14154 -0.43784,-38.5503 z m -18.65928,0.21555 0.43784,38.55031 -12.22639,0.14153 -0.43785,-38.5503 z m -18.98115,-24.38651 c -0.22621,0.26143 -0.51387,0.52552 -0.88766,0.78572 -1.17021,0.81136 -0.85328,3.42016 -0.61638,4.69105 l -1.77729,0.0201 c 0.18752,-1.10844 0.50103,-3.32949 0.23081,-4.48325 -0.12334,-0.52495 -0.31085,-0.98982 -0.48576,-1.42953 z m -13.4768,-0.30067 c -0.16488,0.44364 -0.34067,0.9127 -0.45317,1.44038 -0.24396,1.1597 0.11994,3.37389 0.33255,4.47675 l -1.77729,0.0201 c 0.20797,-1.277 0.46559,-3.89146 -0.72274,-4.67558 -0.37961,-0.25151 -0.67318,-0.50888 -0.90527,-0.76501 z m 13.79642,24.90272 0.43785,38.55031 -17.08097,0.19726 -0.43784,-38.5503 z m -23.51832,0.27162 0.43784,38.55031 -12.22416,0.14151 -0.43784,-38.55031 z m -30.88456,0.35676 12.22639,-0.14153 0.43784,38.55031 -12.22639,0.14153 z m 458.61663,22.10626 -1.1502,0.0133 -0.0657,-5.8021 c 0.6881,0.34525 1.1604,0.98294 1.16996,1.72619 z m 7.9218,-0.0912 -4.67013,0.0542 -0.0455,-4.06264 c -0.01,-1.12077 1.02431,-2.04148 2.31201,-2.05634 1.28769,-0.0149 2.34315,0.8817 2.35811,2.0024 z m 7.92179,-0.0912 -4.67013,0.0542 -0.0455,-4.06265 c -0.0107,-1.12075 1.02434,-2.04146 2.31203,-2.05634 1.28657,-0.0148 2.34314,0.8817 2.35811,2.0024 z m 7.92179,-0.0912 -4.66901,0.0542 -0.0455,-4.06264 c -0.0117,-1.12074 1.02321,-2.04147 2.31202,-2.05635 1.28771,-0.0149 2.34203,0.88172 2.357,2.00243 z m 7.92068,-0.0912 -4.6679,0.0542 -0.0455,-4.06264 c -0.0117,-1.12074 1.02319,-2.04146 2.31201,-2.05635 1.28769,-0.0149 2.34315,0.88171 2.35587,2.00243 z m 7.92289,-0.0912 -4.66901,0.0542 -0.0455,-4.06265 c -0.0117,-1.12075 1.02209,-2.04144 2.31201,-2.05634 1.28658,-0.0148 2.34316,0.8817 2.35701,2.00241 z m 7.92291,-0.0912 -4.67124,0.0543 -0.0455,-4.06264 c -0.01,-1.12076 1.02545,-2.04148 2.31202,-2.05634 1.28882,-0.0149 2.34314,0.88169 2.35923,2.0024 z m 7.92067,-0.0912 -4.67013,0.0542 -0.0455,-4.06264 c -0.0127,-1.12073 1.02544,-2.04149 2.31314,-2.05636 1.28769,-0.0149 2.34203,0.88172 2.35699,2.00242 z m 7.92291,-0.0912 -4.66901,0.0542 -0.0455,-4.06264 c -0.0117,-1.12074 1.02209,-2.04144 2.31202,-2.05634 1.28658,-0.0148 2.34315,0.8817 2.357,2.00241 z m 7.92061,-0.0912 -4.669,0.0542 -0.0455,-4.06264 c -0.0127,-1.12073 1.02432,-2.04148 2.31202,-2.05635 1.28769,-0.0148 2.34314,0.8817 2.35699,2.00242 z m 25.00732,-2.54614 -0.0767,-6.78566 20.34152,-0.23494 c -7.5474,2.25205 -13.6145,6.37945 -15.9569,8.12188 l -0.013,-1.15186 -4.29445,0.0502 z m 6.86542,1.59229 c 4.0455,-2.78274 13.2143,-8.24392 22.9313,-8.35616 z"
           id="path17"
           style="stroke-width:1.04287"
           sodipodi:nodetypes="ccccccccccccccccccccccccccscccccccccccccccccccccccccccccccccccsccccscccccccccccccccccsccccccccccccccccccccccccssccccccccccccscccccccccscccccccccccssssccscccccccccccccccsccccccccccccccccccccccccccccccccccccccccccccccccccccccccccccccccccccccccccccccccccscccccccccccccccccccccccccccccccccscccccccccccsccccccccccccccccccccccccccccccccsccccccsccccccscccccccccccccccccccccccccccccccccccccccccccccccccccccccccccccccccccccccccccccccccccscssscssscccccccccccccccccccccccccccccccccccccccccccccccscccccscccccscccccscccccscccccscccccscccccscccccscccccccccccc" />
      </g>
    </g>
  </g>
</svg>
